# xmcd
#
# Track frame offsets:
#	182
#	21252
#	44977
#	72262
#	94412
#	117462
#	142705
#	156765
#
# Disc length: 2330 seconds
#
# Revision: 7
# Processed by: cddbd v1.5.2PL0 Copyright (c) Steve Scherf et al.
# Submitted via: audiograbber 1.83.01
#
DISCID=71091808
DTITLE=Benson, George - Tenderly
DYEAR=1989
DGENRE=Soul
TTITLE0=You don't know what love is
TTITLE1=Stella by starlight
TTITLE2=Stardust
TTITLE3=At the Mambo Inn
TTITLE4=Here, there and everywhere
TTITLE5=This is all I ask
TTITLE6=Tenderly
TTITLE7=I could write a book
EXTD=
EXTT0=George Benson:	Guitar and Vocal\nMcCoy Tyner:	Acoustic Piano\nRon Carter:	U
EXTT0=pright Bass\nLouis Hayes:	Drums
EXTT1=George Benson:	Guitar and Vocal\nMcCoy Tyner:	Acoustic Piano\nRon Carter:	U
EXTT1=pright Bass\nHerlin Riley:	Drums
EXTT2=George Benson:	Guitar and Vocal\nMcCoy Tyner:	Acoustic Piano\nRon Carter:	U
EXTT2=pright Bass\nHerlin Riley:	Drums
EXTT3=George Benson:	Guitar and Vocal\nMcCoy Tyner:	Acoustic Piano\nRon Carter:	U
EXTT3=pright Bass\nHerlin Riley:	Drums\nLenny Castro:	Percussion
EXTT4=George Benson:	Guitar and Vocal\nMcCoy Tyner:	Acoustic Piano\nRon Carter:	U
EXTT4=pright Bass\nHerlin Riley:	Drums\nLenny Castro:	Percussion
EXTT5=George Benson:	Guitar and Vocal\nMcCoy Tyner:	Acoustic Piano\nRon Carter:	U
EXTT5=pright Bass\nLouis Hays:	Drums
EXTT6=George Benson:	Guitar
EXTT7=George Benson:	Guitar and Vocal\nMcCoy Tyner:	Acoustic Piano\nRon Carter:	U
EXTT7=pright Bass\nAl Foster:		Drums
PLAYORDER=
